<svg height="512" viewBox="0 0 64 64" width="512" xmlns="http://www.w3.org/2000/svg"><g id="Filled_outline" data-name="Filled outline"><path d="m24 37h16v16h-16z" fill="#e5e5d6"/><path d="m29 57h6v4h-6z" fill="#f9bb4b"/><path d="m29 53h6v4h-6z" fill="#ffd782"/><path d="m23 57h6v4h-6z" fill="#ffd782" transform="matrix(-1 0 0 -1 52 118)"/><path d="m23 57h6v-4h-5z" fill="#f9bb4b"/><path d="m35 57h6v4h-6z" fill="#ffd782"/><path d="m41 57h-6v-4h5z" fill="#f9bb4b"/><path d="m24 53h-5l5-10z" fill="#195c85"/><path d="m40 53h5l-5-10z" fill="#195c85"/><path d="m40 37h-16l2-4h12z" fill="#dd3e46"/><path d="m26 21h12v12h-12z" fill="#e5e5d6"/><path d="m38 21h-12l2-4h8z" fill="#dd3e46"/><path d="m36 11h-8l4-6z" fill="#dd3e46"/><path d="m28 11h8v6h-8z" fill="#e5e5d6"/><path d="m34 53h-4v-6l2-4 2 4z" fill="#195c85"/><path d="m17 25h2v2h-2z"/><path d="m45.9 52.553-4.9-9.789v-5.764a1.792 1.792 0 0 0 -.1-.447l-1.9-3.789v-11.764a1.792 1.792 0 0 0 -.1-.447l-1.9-3.789v-5.764a1.769 1.769 0 0 0 -.168-.555l-3.832-5.745v-1.7a1 1 0 0 0 -2 0v1.7l-3.832 5.748a1.769 1.769 0 0 0 -.168.552v5.764l-1.895 3.789a1.792 1.792 0 0 0 -.105.447v11.764l-1.895 3.789a1.792 1.792 0 0 0 -.105.447v5.764l-4.895 9.789a1 1 0 0 0 .895 1.447h3.72l-.69 2.757a2.016 2.016 0 0 0 -.03.243v4a1 1 0 0 0 1 1h18a1 1 0 0 0 1-1v-4a2.016 2.016 0 0 0 -.03-.243l-.69-2.757h3.72a1 1 0 0 0 .9-1.447zm-6.181 3.447h-3.719v-2h3.219zm-14.938-2h3.219v2h-3.719zm8.219-2h-2v-4.764l1-2 1 2zm-3 2h4v2h-4zm5-2v-5a1 1 0 0 0 -.1-.447l-2-4a1.042 1.042 0 0 0 -1.79 0l-2 4a1 1 0 0 0 -.11.447v5h-4v-14h14v14zm-3-45.2 2.132 3.2h-4.264zm-3 5.2h6v4h-6zm-.382 6h6.764l1 2h-8.764zm-1.618 4h10v10h-10zm-.382 12h10.764l1 2h-12.764zm-3.618 13.236v4.764h-2.382zm1 10.764h4v2h-4zm6 0h4v2h-4zm10 2h-4v-2h4zm1-8v-4.764l2.382 4.764z"/><path d="m27 40h2v2h-2z"/><path d="m35 40h2v2h-2z"/><path d="m41 12h2v2h-2z"/><path d="m41 16h2v2h-2z"/><path d="m39 14h2v2h-2z"/><path d="m43 14h2v2h-2z"/><path d="m19 23h2v2h-2z"/><path d="m19 27h2v2h-2z"/><path d="m21 25h2v2h-2z"/><path d="m34 24h-4v2h3v3h2v-4a1 1 0 0 0 -1-1z"/></g></svg>