<svg height="512pt" viewBox="0 -93 512 512" width="512pt" xmlns="http://www.w3.org/2000/svg"><path d="m415.414062 326.761719c-53.257812 0-96.585937-43.328125-96.585937-96.585938 0-53.257812 43.328125-96.585937 96.585937-96.585937 53.257813 0 96.585938 43.328125 96.585938 96.585937 0 53.257813-43.328125 96.585938-96.585938 96.585938zm0-162.816407c-36.519531 0-66.230468 29.710938-66.230468 66.230469s29.710937 66.230469 66.230468 66.230469c36.519532 0 66.230469-29.710938 66.230469-66.230469s-29.710937-66.230469-66.230469-66.230469zm0 0" fill="#23272b"/><path d="m428.472656 222.441406-79.289062-133.898437v-42.355469c0-8.382812-6.792969-15.175781-15.175782-15.175781-8.382812 0-15.179687 6.792969-15.179687 15.175781v31.335938h-188.003906c-6.222657 0-11.816407 3.800781-14.109375 9.585937-2.292969 5.785156-.824219 12.378906 3.707031 16.644531l146.070313 137.472656c2.8125 2.652344 6.535156 4.125 10.402343 4.125h138.519531c5.453126 0 10.484376-2.921874 13.1875-7.660156 2.699219-4.738281 2.652344-10.558594-.128906-15.25zm-117.207031-114.5625-39.964844 96.191406-102.203125-96.191406zm-11.628906 107.117188 36.757812-88.476563 52.394531 88.476563zm0 0" fill="#ff7d81"/><path d="m349.183594 88.542969v-42.355469c0-8.382812-6.792969-15.175781-15.175782-15.175781-8.382812 0-15.179687 6.792969-15.179687 15.175781v31.335938h-62.832031v30.355468h55.269531l-39.964844 96.191406-15.304687-14.402343v41.683593l10.496094 9.875c2.8125 2.652344 6.535156 4.125 10.402343 4.125h138.519531c5.453126 0 10.484376-2.921874 13.1875-7.660156 2.699219-4.738281 2.648438-10.558594-.128906-15.25zm-49.546875 126.453125 36.757812-88.476563 52.394531 88.476563zm0 0" fill="#ff3da8"/><path d="m347.179688 61.367188h-47.019532c-8.382812 0-15.179687-6.796876-15.179687-15.179688s6.796875-15.175781 15.179687-15.175781h47.019532c8.382812 0 15.179687 6.792969 15.179687 15.175781s-6.796875 15.179688-15.179687 15.179688zm0 0" fill="#555a66"/><path d="m96.585938 326.761719c-53.257813 0-96.585938-43.328125-96.585938-96.585938 0-53.257812 43.328125-96.585937 96.585938-96.585937 53.257812 0 96.585937 43.328125 96.585937 96.585937 0 53.257813-43.328125 96.585938-96.585937 96.585938zm0-162.816407c-36.519532 0-66.230469 29.710938-66.230469 66.230469s29.710937 66.230469 66.230469 66.230469c36.519531 0 66.230468-29.710938 66.230468-66.230469s-29.710937-66.230469-66.230468-66.230469zm0 0" fill="#555a66"/><path d="m96.597656 245.355469c-1.214844 0-2.449218-.144531-3.679687-.453125-8.132813-2.023438-13.085938-10.261719-11.0625-18.394532l48.851562-196.152343h-33.667969c-8.382812 0-15.175781-6.796875-15.175781-15.175781 0-8.382813 6.792969-15.179688 15.175781-15.179688h53.09375c4.671876 0 9.082032 2.152344 11.957032 5.832031 2.875 3.679688 3.898437 8.480469 2.769531 13.015625l-53.542969 214.996094c-1.722656 6.902344-7.914062 11.511719-14.71875 11.511719zm0 0" fill="#ff3da8"/></svg>